<?xml version="1.0" encoding="utf-8"?>
<!-- Generator: Adobe Illustrator 23.1.1, SVG Export Plug-In . SVG Version: 6.00 Build 0)  -->
<svg version="1.1" id="Layer_1" xmlns="http://www.w3.org/2000/svg" xmlns:xlink="http://www.w3.org/1999/xlink" x="0px" y="0px"
	 viewBox="0 0 450.2 123.3" style="enable-background:new 0 0 450.2 123.3;" xml:space="preserve">
<style type="text/css">
	.st0{clip-path:url(#SVGID_2_);}
	.st1{clip-path:url(#SVGID_4_);}
	.st2{clip-path:url(#SVGID_6_);}
	.st3{clip-path:url(#SVGID_8_);}
	.st4{clip-path:url(#SVGID_10_);}
	.st5{clip-path:url(#SVGID_12_);}
	.st6{clip-path:url(#SVGID_14_);}
	.st7{clip-path:url(#SVGID_16_);}
	.st8{clip-path:url(#SVGID_18_);}
	.st9{clip-path:url(#SVGID_20_);}
	.st10{clip-path:url(#SVGID_22_);}
	.st11{clip-path:url(#SVGID_24_);}
	.st12{clip-path:url(#SVGID_26_);}
	.st13{clip-path:url(#SVGID_28_);}
	.st14{clip-path:url(#SVGID_30_);}
</style>
<title>Service64 Logo yello</title>
<path d="M12.8,34.7c0,9.8,7.5,13.4,15.1,15.6s10.6,3.4,10.6,6.5c0,2-1.4,4.2-6.9,4.2c-5.8,0-8.9-2.8-10.7-7.1l-10.1,5.8
	c2.8,7.5,9.7,12.6,20.5,12.6c11.1,0,19-5.8,19-15.7c0-10.8-8.7-13.5-16.5-15.9c-8-2.4-9.2-4-9.2-6.4c0-2,1.8-3.9,5.5-3.9
	c4.7,0,7.1,2.3,8.8,5.9l9.9-5.8C45,23.1,38.4,19.1,30,19.1C21.1,19.1,12.8,24.8,12.8,34.7"/>
<g>
	<defs>
		<path id="SVGID_1_" d="M12.8,34.7c0,9.8,7.5,13.4,15.1,15.6s10.6,3.4,10.6,6.5c0,2-1.4,4.2-6.9,4.2c-5.8,0-8.9-2.8-10.7-7.1
			l-10.1,5.8c2.8,7.5,9.7,12.6,20.5,12.6c11.1,0,19-5.8,19-15.7c0-10.8-8.7-13.5-16.5-15.9c-8-2.4-9.2-4-9.2-6.4
			c0-2,1.8-3.9,5.5-3.9c4.7,0,7.1,2.3,8.8,5.9l9.9-5.8C45,23.1,38.4,19.1,30,19.1C21.1,19.1,12.8,24.8,12.8,34.7"/>
	</defs>
	<use xlink:href="#SVGID_1_"  style="overflow:visible;"/>
	<clipPath id="SVGID_2_">
		<use xlink:href="#SVGID_1_"  style="overflow:visible;"/>
	</clipPath>
	<g class="st0">
		<rect x="0.3" y="21" transform="matrix(0.2052 -0.9787 0.9787 0.2052 -20.587 66.1006)" width="60.2" height="49.5"/>
	</g>
</g>
<path d="M115.7,31.1h8.8c3.2,0,5.9,2.8,5.9,6.6s-2.6,6.6-5.9,6.6h-8.8L115.7,31.1z M104,20.1v51.2h11.7V54.5h5.5l9.6,16.8h12.6
	l-10.9-18.8c5.7-2.8,9.3-8.5,9.4-14.8c0-9.7-7.8-17.5-17.4-17.6c0,0-0.1,0-0.1,0H104z"/>
<g>
	<defs>
		<path id="SVGID_3_" d="M115.7,31.1h8.8c3.2,0,5.9,2.8,5.9,6.6s-2.6,6.6-5.9,6.6h-8.8L115.7,31.1z M104,20.1v51.2h11.7V54.5h5.5
			l9.6,16.8h12.6l-10.9-18.8c5.7-2.8,9.3-8.5,9.4-14.8c0-9.7-7.8-17.5-17.4-17.6c0,0-0.1,0-0.1,0H104z"/>
	</defs>
	<use xlink:href="#SVGID_3_"  style="overflow:visible;"/>
	<clipPath id="SVGID_4_">
		<use xlink:href="#SVGID_3_"  style="overflow:visible;"/>
	</clipPath>
	<g class="st1">
		<rect x="94.6" y="21.2" transform="matrix(0.2052 -0.9787 0.9787 0.2052 53.5613 157.3965)" width="58.2" height="49.1"/>
	</g>
</g>
<polygon points="179.2,20.1 167.9,57.8 156.6,20.1 143.8,20.1 160.4,71.3 175.4,71.3 192,20.1 "/>
<g>
	<defs>
		<polygon id="SVGID_5_" points="179.2,20.1 167.9,57.8 156.6,20.1 143.8,20.1 160.4,71.3 175.4,71.3 192,20.1 		"/>
	</defs>
	<use xlink:href="#SVGID_5_"  style="overflow:visible;"/>
	<clipPath id="SVGID_6_">
		<use xlink:href="#SVGID_5_"  style="overflow:visible;"/>
	</clipPath>
	<g class="st2">
		<rect x="137.9" y="16.9" transform="matrix(0.2052 -0.9787 0.9787 0.2052 88.7006 200.6673)" width="60" height="57.7"/>
	</g>
</g>
<rect x="196.4" y="20.1" width="11.7" height="51.2"/>
<g>
	<defs>
		<rect id="SVGID_7_" x="196.4" y="20.1" width="11.7" height="51.2"/>
	</defs>
	<use xlink:href="#SVGID_7_"  style="overflow:visible;"/>
	<clipPath id="SVGID_8_">
		<use xlink:href="#SVGID_7_"  style="overflow:visible;"/>
	</clipPath>
	<g class="st3">
		<rect x="176" y="34.8" transform="matrix(0.2052 -0.9787 0.9787 0.2052 115.9908 234.2731)" width="52.5" height="21.9"/>
	</g>
</g>
<path d="M214.7,31l10.1,5.8c2.3-3.9,6.6-6.3,11.8-6.3c9.1,0,14.9,6.1,14.9,15.2s-5.8,15.2-14.9,15.2c-5.2,0-9.6-2.3-11.8-6.3
	l-10.1,5.8c4.7,7.5,13,12,21.9,11.8c15.4,0,26.6-11.5,26.6-26.6S252,19.1,236.6,19.1C227.7,19,219.4,23.5,214.7,31"/>
<g>
	<defs>
		<path id="SVGID_9_" d="M214.7,31l10.1,5.8c2.3-3.9,6.6-6.3,11.8-6.3c9.1,0,14.9,6.1,14.9,15.2s-5.8,15.2-14.9,15.2
			c-5.2,0-9.6-2.3-11.8-6.3l-10.1,5.8c4.7,7.5,13,12,21.9,11.8c15.4,0,26.6-11.5,26.6-26.6S252,19.1,236.6,19.1
			C227.7,19,219.4,23.5,214.7,31"/>
	</defs>
	<use xlink:href="#SVGID_9_"  style="overflow:visible;"/>
	<clipPath id="SVGID_10_">
		<use xlink:href="#SVGID_9_"  style="overflow:visible;"/>
	</clipPath>
	<g class="st4">
		<rect x="209.7" y="14.7" transform="matrix(0.9787 -0.2052 0.2052 0.9787 -4.296 49.9933)" width="58.4" height="62"/>
	</g>
</g>
<rect x="55.6" y="20.1" width="41.4" height="11.2"/>
<g>
	<defs>
		<rect id="SVGID_11_" x="55.6" y="20.1" width="41.4" height="11.2"/>
	</defs>
	<use xlink:href="#SVGID_11_"  style="overflow:visible;"/>
	<clipPath id="SVGID_12_">
		<use xlink:href="#SVGID_11_"  style="overflow:visible;"/>
	</clipPath>
	<g class="st5">
		<rect x="66.6" y="4.4" transform="matrix(0.2052 -0.9787 0.9787 0.2052 35.447 95.1788)" width="19.5" height="42.8"/>
	</g>
</g>
<rect x="55.6" y="39.8" width="41.4" height="11.2"/>
<g>
	<defs>
		<rect id="SVGID_13_" x="55.6" y="39.8" width="41.4" height="11.2"/>
	</defs>
	<use xlink:href="#SVGID_13_"  style="overflow:visible;"/>
	<clipPath id="SVGID_14_">
		<use xlink:href="#SVGID_13_"  style="overflow:visible;"/>
	</clipPath>
	<g class="st6">
		<rect x="66.6" y="24" transform="matrix(0.2052 -0.9787 0.9787 0.2052 16.245 110.7611)" width="19.5" height="42.8"/>
	</g>
</g>
<rect x="55.6" y="59.4" width="41.4" height="11.2"/>
<g>
	<defs>
		<rect id="SVGID_15_" x="55.6" y="59.4" width="41.4" height="11.2"/>
	</defs>
	<use xlink:href="#SVGID_15_"  style="overflow:visible;"/>
	<clipPath id="SVGID_16_">
		<use xlink:href="#SVGID_15_"  style="overflow:visible;"/>
	</clipPath>
	<g class="st7">
		<rect x="66.6" y="43.6" transform="matrix(0.2052 -0.9787 0.9787 0.2052 -2.949 126.353)" width="19.5" height="42.8"/>
	</g>
</g>
<rect x="55.6" y="39.8" width="11.3" height="30.6"/>
<g>
	<defs>
		<rect id="SVGID_17_" x="55.6" y="39.8" width="11.3" height="30.6"/>
	</defs>
	<use xlink:href="#SVGID_17_"  style="overflow:visible;"/>
	<clipPath id="SVGID_18_">
		<use xlink:href="#SVGID_17_"  style="overflow:visible;"/>
	</clipPath>
	<g class="st8">
		<polygon points="47.2,69.1 56.1,38.1 75.3,41.1 66.4,72.1 		"/>
	</g>
</g>
<rect x="268.8" y="39.8" width="11.3" height="30.6"/>
<g>
	<defs>
		<rect id="SVGID_19_" x="268.8" y="39.8" width="11.3" height="30.6"/>
	</defs>
	<use xlink:href="#SVGID_19_"  style="overflow:visible;"/>
	<clipPath id="SVGID_20_">
		<use xlink:href="#SVGID_19_"  style="overflow:visible;"/>
	</clipPath>
	<g class="st9">
		<polygon points="260.4,69.1 269.2,38.1 288.4,41.1 279.6,72.1 		"/>
	</g>
</g>
<rect x="268.8" y="20.1" width="40.7" height="11.2"/>
<g>
	<defs>
		<rect id="SVGID_21_" x="268.8" y="20.1" width="40.7" height="11.2"/>
	</defs>
	<use xlink:href="#SVGID_21_"  style="overflow:visible;"/>
	<clipPath id="SVGID_22_">
		<use xlink:href="#SVGID_21_"  style="overflow:visible;"/>
	</clipPath>
	<g class="st10">
		<rect x="279.4" y="4.7" transform="matrix(0.2052 -0.9787 0.9787 0.2052 204.5535 303.4362)" width="19.4" height="42.1"/>
	</g>
</g>
<rect x="268.8" y="39.8" width="41.4" height="11.2"/>
<g>
	<defs>
		<rect id="SVGID_23_" x="268.8" y="39.8" width="41.4" height="11.2"/>
	</defs>
	<use xlink:href="#SVGID_23_"  style="overflow:visible;"/>
	<clipPath id="SVGID_24_">
		<use xlink:href="#SVGID_23_"  style="overflow:visible;"/>
	</clipPath>
	<g class="st11">
		<rect x="279.7" y="24" transform="matrix(0.2052 -0.9787 0.9787 0.2052 185.6407 319.36)" width="19.5" height="42.8"/>
	</g>
</g>
<rect x="268.8" y="59.4" width="41.4" height="11.2"/>
<g>
	<defs>
		<rect id="SVGID_25_" x="268.8" y="59.4" width="41.4" height="11.2"/>
	</defs>
	<use xlink:href="#SVGID_25_"  style="overflow:visible;"/>
	<clipPath id="SVGID_26_">
		<use xlink:href="#SVGID_25_"  style="overflow:visible;"/>
	</clipPath>
	<g class="st12">
		<rect x="279.7" y="43.6" transform="matrix(0.2052 -0.9787 0.9787 0.2052 166.4466 334.952)" width="19.5" height="42.8"/>
	</g>
</g>
<path d="M402.1,19.3l-20.9,36.8l0,0c-4.9-6.8-12.3-11.3-20.6-12.4l16.8-24.4h-21.5l-25,37.9c-2.6,4-4.2,8.5-4.6,13.2
	c0,0.1,0,0.3,0,0.4c0,0.3,0,0.7-0.1,1c0,0.6-0.1,1.3-0.1,1.9c-0.1,6.8,2.1,13.4,6.4,18.7c10.3,13.2,29.3,15.5,42.5,5.2
	c2.2-1.7,4.2-3.8,5.9-6.1c1.3-1.7,2.5-3.6,3.3-5.6h-27.2c-6.2,0-11.5-4.7-12.2-10.9c0-0.4-0.1-0.9-0.1-1.3s0-0.9,0.1-1.3
	c0.7-6.2,5.9-10.9,12.2-10.9h41.1l24-42.2H402.1z"/>
<g>
	<defs>
		<path id="SVGID_27_" d="M402.1,19.3l-20.9,36.8l0,0c-4.9-6.8-12.3-11.3-20.6-12.4l16.8-24.4h-21.5l-25,37.9
			c-2.6,4-4.2,8.5-4.6,13.2c0,0.1,0,0.3,0,0.4c0,0.3,0,0.7-0.1,1c0,0.6-0.1,1.3-0.1,1.9c-0.1,6.8,2.1,13.4,6.4,18.7
			c10.3,13.2,29.3,15.5,42.5,5.2c2.2-1.7,4.2-3.8,5.9-6.1c1.3-1.7,2.5-3.6,3.3-5.6h-27.2c-6.2,0-11.5-4.7-12.2-10.9
			c0-0.4-0.1-0.9-0.1-1.3s0-0.9,0.1-1.3c0.7-6.2,5.9-10.9,12.2-10.9h41.1l24-42.2H402.1z"/>
	</defs>
	<use xlink:href="#SVGID_27_"  style="overflow:visible;"/>
	<clipPath id="SVGID_28_">
		<use xlink:href="#SVGID_27_"  style="overflow:visible;"/>
	</clipPath>
	<g class="st13">
		<rect x="322.8" y="6" transform="matrix(0.2052 -0.9787 0.9787 0.2052 237.0469 415.2527)" width="102.7" height="111.4"/>
	</g>
</g>
<path d="M413.2,53.1v12h-56.1c-4.8,0-8.6,3.9-8.6,8.6c0,4.8,3.9,8.6,8.6,8.6h56.1v20.1h18.9V82.4h8.2V65.1h-8.2v-12H413.2z"/>
<g>
	<defs>
		<path id="SVGID_29_" d="M413.2,53.1v12h-56.1c-4.8,0-8.6,3.9-8.6,8.6c0,4.8,3.9,8.6,8.6,8.6h56.1v20.1h18.9V82.4h8.2V65.1h-8.2
			v-12H413.2z"/>
	</defs>
	<use xlink:href="#SVGID_29_"  style="overflow:visible;"/>
	<clipPath id="SVGID_30_">
		<use xlink:href="#SVGID_29_"  style="overflow:visible;"/>
	</clipPath>
	<g class="st14">
		<rect x="360.8" y="27.8" transform="matrix(0.2052 -0.9787 0.9787 0.2052 237.3195 447.7831)" width="67.1" height="100"/>
	</g>
</g>
<path d="M20.6,91.3c0,0.1-0.1,0.1-0.2,0.2c-0.1,0.1-0.1,0.1-0.2,0.1c-0.1,0-0.3-0.1-0.4-0.2l-0.5-0.3c-0.2-0.1-0.5-0.2-0.7-0.3
	c-0.3-0.1-0.7-0.1-1-0.1c-0.3,0-0.7,0-1,0.2c-0.3,0.1-0.5,0.2-0.7,0.4c-0.2,0.2-0.3,0.4-0.4,0.6c-0.1,0.2-0.2,0.5-0.1,0.8
	c0,0.3,0.1,0.6,0.3,0.8c0.2,0.2,0.4,0.4,0.7,0.6c0.3,0.2,0.7,0.3,1,0.4l1.1,0.4c0.4,0.1,0.8,0.3,1.1,0.4c0.4,0.1,0.7,0.3,1,0.6
	c0.3,0.2,0.5,0.5,0.7,0.9c0.2,0.4,0.3,0.8,0.3,1.3c0,0.5-0.1,1-0.3,1.5c-0.2,0.5-0.5,0.9-0.8,1.2c-0.4,0.4-0.8,0.6-1.3,0.8
	c-0.6,0.2-1.2,0.3-1.8,0.3c-0.8,0-1.5-0.1-2.2-0.4c-0.7-0.3-1.3-0.7-1.8-1.2l0.5-0.8c0.1-0.1,0.1-0.1,0.2-0.2c0.1,0,0.1-0.1,0.2-0.1
	c0.2,0,0.3,0.1,0.4,0.2c0.2,0.2,0.4,0.3,0.6,0.4c0.3,0.2,0.6,0.3,0.9,0.4c0.4,0.1,0.8,0.2,1.2,0.2c0.4,0,0.7-0.1,1.1-0.2
	c0.3-0.1,0.6-0.2,0.8-0.4c0.2-0.2,0.4-0.4,0.5-0.7c0.1-0.3,0.2-0.6,0.2-0.9c0-0.3-0.1-0.6-0.3-0.9c-0.2-0.2-0.4-0.4-0.7-0.6
	c-0.3-0.2-0.7-0.3-1-0.4l-1.1-0.3c-0.4-0.1-0.8-0.2-1.1-0.4c-0.4-0.2-0.7-0.4-1-0.6c-0.3-0.3-0.5-0.6-0.7-0.9
	c-0.2-0.4-0.3-0.9-0.3-1.4c0-0.4,0.1-0.9,0.3-1.2c0.2-0.4,0.4-0.8,0.8-1.1c0.4-0.3,0.8-0.6,1.2-0.8c0.5-0.2,1.1-0.3,1.7-0.3
	c0.7,0,1.3,0.1,1.9,0.3c0.6,0.2,1.1,0.5,1.5,0.9L20.6,91.3z"/>
<path d="M30.5,97.6c0.1,0.2,0.1,0.3,0.2,0.5c0.1-0.2,0.1-0.3,0.2-0.5c0.1-0.1,0.1-0.3,0.2-0.4l4.3-7.5c0-0.1,0.1-0.2,0.2-0.2
	c0.1,0,0.2,0,0.3,0h1.3v12.1h-1.5v-8.9c0-0.1,0-0.2,0-0.4v-0.4l-4.3,7.6c-0.1,0.2-0.4,0.4-0.6,0.4h-0.2c-0.3,0-0.5-0.2-0.6-0.4
	l-4.4-7.6c0,0.1,0,0.3,0,0.4c0,0.1,0,0.3,0,0.4v8.9h-1.4V89.4h1.3c0.1,0,0.2,0,0.3,0c0.1,0.1,0.2,0.1,0.2,0.2l4.4,7.5
	C30.4,97.3,30.5,97.5,30.5,97.6z"/>
<path d="M51.3,101.6H50c-0.1,0-0.3,0-0.4-0.1c-0.1-0.1-0.2-0.2-0.2-0.3l-1.2-2.9h-5.7l-1.2,2.9c0,0.1-0.1,0.2-0.2,0.3
	c-0.1,0.1-0.2,0.1-0.4,0.1h-1.3l5.1-12.2h1.7L51.3,101.6z M43,97.1h4.7l-2-5c-0.1-0.4-0.3-0.8-0.4-1.2c-0.1,0.2-0.1,0.4-0.2,0.6
	S45,92,45,92.1L43,97.1z"/>
<path d="M55.3,96.5v5.1h-1.7V89.4h3.6c0.7,0,1.4,0.1,2.1,0.2c0.5,0.1,1,0.4,1.4,0.7c0.4,0.3,0.7,0.6,0.8,1.1
	c0.2,0.4,0.3,0.9,0.3,1.4c0,0.4-0.1,0.8-0.2,1.2c-0.1,0.4-0.3,0.7-0.6,1c-0.3,0.3-0.6,0.6-1,0.8c-0.4,0.2-0.9,0.4-1.3,0.5
	c0.2,0.1,0.4,0.3,0.6,0.5l3.7,4.8h-1.5c-0.3,0-0.5-0.1-0.7-0.3l-3.3-4.3c-0.1-0.1-0.2-0.2-0.3-0.3c-0.2-0.1-0.3-0.1-0.5-0.1
	L55.3,96.5z M55.3,95.3h1.8c0.4,0,0.9-0.1,1.3-0.2c0.4-0.1,0.7-0.3,1-0.5c0.2-0.2,0.4-0.5,0.6-0.8c0.1-0.3,0.2-0.7,0.2-1
	c0-0.6-0.2-1.3-0.8-1.6c-0.7-0.4-1.5-0.6-2.2-0.5h-1.9V95.3z"/>
<path d="M73.5,89.4v1.4h-4.1v10.8h-1.7V90.8h-4.1v-1.4H73.5z"/>
<path d="M81.7,97.1v4.6H80V89.4h3.7c0.7,0,1.4,0.1,2.1,0.3c0.5,0.2,1,0.4,1.5,0.8c0.4,0.3,0.7,0.7,0.9,1.2c0.2,0.5,0.3,1,0.3,1.6
	c0,0.5-0.1,1.1-0.3,1.6c-0.2,0.5-0.5,0.9-0.9,1.2c-0.4,0.4-0.9,0.6-1.5,0.8c-0.6,0.2-1.3,0.3-2,0.3H81.7z M81.7,95.7h2
	c0.4,0,0.9-0.1,1.3-0.2c0.3-0.1,0.7-0.3,0.9-0.5c0.2-0.2,0.4-0.5,0.6-0.8c0.1-0.3,0.2-0.7,0.2-1c0-0.7-0.2-1.4-0.8-1.8
	c-0.7-0.5-1.5-0.7-2.3-0.7h-2V95.7z"/>
<path d="M98.9,89.4v1.3h-6.1v4h4.9v1.4h-4.9v4.2h6.1v1.3h-7.8V89.4H98.9z"/>
<path d="M113.7,95.5c0,0.9-0.1,1.7-0.5,2.5c-0.6,1.5-1.7,2.7-3.2,3.2c-1.6,0.6-3.5,0.6-5.1,0c-1.5-0.6-2.7-1.8-3.2-3.2
	c-0.6-1.6-0.6-3.4,0-5c0.3-0.7,0.7-1.4,1.3-2c0.6-0.6,1.3-1,2-1.3c1.6-0.6,3.5-0.6,5.1,0c0.7,0.3,1.4,0.7,2,1.3c0.6,0.6,1,1.3,1.3,2
	C113.6,93.8,113.7,94.7,113.7,95.5z M111.9,95.5c0-0.7-0.1-1.4-0.3-2c-0.2-0.6-0.5-1.1-0.9-1.5c-0.4-0.4-0.9-0.7-1.4-0.9
	c-1.2-0.4-2.5-0.4-3.7,0c-0.5,0.2-1,0.5-1.4,0.9c-0.4,0.4-0.7,0.9-0.9,1.5c-0.4,1.3-0.4,2.7,0,4c0.2,0.6,0.5,1.1,0.9,1.5
	c0.4,0.4,0.9,0.7,1.4,0.9c1.2,0.4,2.5,0.4,3.7,0c0.5-0.2,1-0.5,1.4-0.9c0.4-0.4,0.7-0.9,0.9-1.5C111.8,96.9,111.9,96.2,111.9,95.5z"
	/>
<path d="M118.4,97.1v4.6h-1.7V89.4h3.7c0.7,0,1.4,0.1,2.1,0.3c0.5,0.2,1,0.4,1.5,0.8c0.4,0.3,0.7,0.7,0.9,1.2c0.2,0.5,0.3,1,0.3,1.6
	c0,0.5-0.1,1.1-0.3,1.6c-0.2,0.5-0.5,0.9-0.9,1.2c-0.4,0.4-0.9,0.6-1.5,0.8c-0.6,0.2-1.3,0.3-2,0.3H118.4z M118.4,95.7h2
	c0.4,0,0.9-0.1,1.3-0.2c0.3-0.1,0.7-0.3,0.9-0.5c0.3-0.2,0.4-0.5,0.6-0.8c0.1-0.3,0.2-0.7,0.2-1c0-0.7-0.2-1.4-0.8-1.8
	c-0.7-0.5-1.5-0.7-2.3-0.7h-2L118.4,95.7z"/>
<path d="M129.6,100.2h5.5v1.4h-7.2V89.4h1.7V100.2z"/>
<path d="M145.3,89.4v1.3h-6.1v4h5v1.4h-5v4.2h6.1v1.3h-7.8V89.4H145.3z"/>
<path d="M147.6,100.6c0-0.1,0-0.3,0.1-0.4c0-0.1,0.1-0.2,0.2-0.3c0.1-0.1,0.2-0.2,0.3-0.2c0.1-0.1,0.3-0.1,0.4-0.1
	c0.2,0,0.3,0,0.5,0.1c0.1,0.1,0.3,0.1,0.4,0.2c0.1,0.1,0.2,0.2,0.2,0.4c0,0.2,0.1,0.3,0.1,0.5c0,0.3,0,0.5-0.1,0.8
	c-0.1,0.3-0.2,0.6-0.3,0.8c-0.1,0.3-0.3,0.5-0.5,0.8c-0.2,0.3-0.5,0.5-0.7,0.7l-0.3-0.2c-0.1-0.1-0.1-0.1-0.1-0.2
	c0-0.1,0.1-0.2,0.1-0.2l0.2-0.2c0.1-0.1,0.2-0.2,0.3-0.4c0.1-0.1,0.2-0.3,0.3-0.4c0.1-0.2,0.1-0.3,0.2-0.5h-0.1
	c-0.1,0-0.3,0-0.4-0.1c-0.1,0-0.2-0.1-0.3-0.2C147.7,101.1,147.6,100.8,147.6,100.6L147.6,100.6z"/>
<path d="M162.2,100.4c0.3,0,0.6,0,0.9-0.1c0.3,0,0.5-0.1,0.8-0.1c0.2-0.1,0.5-0.1,0.7-0.2c0.2-0.1,0.4-0.2,0.7-0.3V97h-2
	c-0.1,0-0.2,0-0.3-0.1c-0.1-0.1-0.1-0.1-0.1-0.2v-0.9h3.9v4.7c-0.3,0.2-0.7,0.4-1,0.6c-0.4,0.2-0.7,0.3-1.1,0.4
	c-0.4,0.1-0.8,0.2-1.3,0.2c-0.5,0.1-1,0.1-1.5,0.1c-0.9,0-1.7-0.1-2.5-0.4c-0.7-0.3-1.4-0.7-2-1.3c-0.6-0.6-1-1.3-1.3-2
	c-0.6-1.6-0.6-3.4,0-5.1c0.3-0.8,0.7-1.4,1.3-2c0.6-0.6,1.3-1,2-1.3c0.9-0.3,1.8-0.5,2.7-0.4c0.5,0,0.9,0,1.4,0.1
	c0.4,0.1,0.8,0.2,1.2,0.3c0.3,0.1,0.7,0.3,1,0.5c0.3,0.2,0.6,0.4,0.9,0.6l-0.5,0.8c-0.1,0.1-0.2,0.2-0.4,0.2c-0.1,0-0.2,0-0.3-0.1
	l-0.5-0.3c-0.2-0.1-0.4-0.2-0.7-0.3c-0.3-0.1-0.6-0.2-0.9-0.3c-0.4,0-0.8-0.1-1.2,0c-0.7,0-1.3,0.1-1.9,0.3c-0.6,0.2-1.1,0.6-1.5,1
	c-0.4,0.4-0.7,0.9-0.9,1.5c-0.4,1.3-0.4,2.7,0,4c0.2,0.6,0.6,1.1,1,1.5c0.4,0.4,0.9,0.8,1.5,1C160.9,100.3,161.6,100.4,162.2,100.4z
	"/>
<path d="M171.9,96.5v5.1h-1.7V89.4h3.6c0.7,0,1.4,0.1,2.1,0.2c0.5,0.1,1,0.4,1.4,0.7c0.4,0.3,0.7,0.6,0.8,1.1
	c0.2,0.4,0.3,0.9,0.3,1.4c0,0.8-0.3,1.6-0.8,2.2c-0.3,0.3-0.6,0.6-1,0.8c-0.4,0.2-0.9,0.4-1.3,0.5c0.2,0.1,0.4,0.3,0.6,0.5l3.7,4.8
	H178c-0.3,0-0.5-0.1-0.7-0.3l-3.3-4.3c-0.1-0.1-0.2-0.2-0.3-0.3c-0.2-0.1-0.3-0.1-0.5-0.1L171.9,96.5z M171.9,95.3h1.8
	c0.4,0,0.9-0.1,1.3-0.2c0.3-0.1,0.7-0.3,0.9-0.5c0.3-0.2,0.5-0.5,0.6-0.8c0.1-0.3,0.2-0.7,0.2-1c0-0.6-0.2-1.3-0.8-1.6
	c-0.7-0.4-1.4-0.6-2.2-0.6h-1.9V95.3z"/>
<path d="M189.8,89.4v1.3h-6.1v4h4.9v1.4h-4.9v4.2h6.1v1.3h-7.8V89.4H189.8z"/>
<path d="M203.2,101.6h-1.3c-0.1,0-0.3,0-0.4-0.1c-0.1-0.1-0.2-0.2-0.2-0.3l-1.2-2.9h-5.7l-1.2,2.9c0,0.1-0.1,0.2-0.2,0.3
	c-0.1,0.1-0.2,0.1-0.4,0.1h-1.3l5.1-12.2h1.8L203.2,101.6z M194.9,97.1h4.7l-2-5c-0.1-0.4-0.3-0.8-0.4-1.2c-0.1,0.2-0.1,0.4-0.2,0.6
	s-0.1,0.4-0.2,0.5L194.9,97.1z"/>
<path d="M212.8,89.4v1.4h-4.1v10.8H207V90.8h-4.1v-1.4H212.8z"/>
<path d="M225.5,91.3c0,0.1-0.1,0.1-0.2,0.2c-0.1,0-0.1,0.1-0.2,0.1c-0.1,0-0.3-0.1-0.4-0.2l-0.5-0.3c-0.2-0.1-0.5-0.2-0.7-0.3
	c-0.3-0.1-0.7-0.1-1-0.1c-0.3,0-0.7,0-1,0.2c-0.3,0.1-0.5,0.2-0.7,0.4c-0.2,0.2-0.3,0.4-0.4,0.6c-0.1,0.2-0.2,0.5-0.1,0.8
	c0,0.3,0.1,0.6,0.3,0.8c0.2,0.2,0.4,0.4,0.7,0.6c0.3,0.2,0.7,0.3,1,0.4l1.1,0.4c0.4,0.1,0.7,0.3,1.1,0.4c0.4,0.1,0.7,0.3,1,0.6
	c0.6,0.5,1,1.3,0.9,2.2c0,0.5-0.1,1-0.3,1.5c-0.2,0.5-0.5,0.9-0.8,1.2c-0.4,0.4-0.8,0.6-1.3,0.8c-0.6,0.2-1.2,0.3-1.8,0.3
	c-0.8,0-1.5-0.1-2.2-0.4c-0.7-0.3-1.3-0.7-1.8-1.2l0.5-0.8c0-0.1,0.1-0.1,0.2-0.2c0.1,0,0.1-0.1,0.2-0.1c0.2,0,0.3,0.1,0.4,0.2
	c0.2,0.2,0.4,0.3,0.6,0.4c0.3,0.2,0.6,0.3,0.9,0.4c0.4,0.1,0.8,0.2,1.2,0.2c0.4,0,0.7-0.1,1.1-0.2c0.3-0.1,0.6-0.2,0.8-0.4
	c0.2-0.2,0.4-0.4,0.5-0.7c0.1-0.3,0.2-0.6,0.2-0.9c0-0.3-0.1-0.6-0.3-0.9c-0.2-0.2-0.4-0.4-0.7-0.6c-0.3-0.2-0.7-0.3-1-0.4l-1.1-0.3
	c-0.4-0.1-0.8-0.2-1.1-0.4c-0.4-0.1-0.7-0.3-1-0.6c-0.3-0.3-0.5-0.6-0.7-0.9c-0.2-0.4-0.3-0.9-0.3-1.4c0-0.4,0.1-0.9,0.3-1.2
	c0.2-0.4,0.4-0.8,0.8-1.1c0.4-0.3,0.8-0.6,1.2-0.8c0.5-0.2,1.1-0.3,1.7-0.3c0.7,0,1.3,0.1,1.9,0.3c0.6,0.2,1.1,0.5,1.5,0.9
	L225.5,91.3z"/>
<path d="M240.7,95.5c0,0.9-0.1,1.7-0.4,2.5c-0.3,0.7-0.7,1.4-1.3,2c-0.6,0.6-1.3,1-2,1.3c-1.6,0.6-3.5,0.6-5.1,0
	c-1.5-0.6-2.7-1.8-3.2-3.2c-0.6-1.6-0.6-3.4,0-5c0.3-0.7,0.7-1.4,1.3-2c0.6-0.6,1.3-1,2-1.3c1.6-0.6,3.5-0.6,5.1,0
	c0.7,0.3,1.4,0.7,2,1.3c0.6,0.6,1,1.3,1.3,2C240.6,93.8,240.7,94.7,240.7,95.5z M239,95.5c0-0.7-0.1-1.4-0.3-2
	c-0.2-0.6-0.5-1.1-0.9-1.5c-0.4-0.4-0.9-0.7-1.4-0.9c-1.2-0.4-2.5-0.4-3.7,0c-0.5,0.2-1,0.5-1.4,0.9c-0.4,0.4-0.7,0.9-0.9,1.5
	c-0.4,1.3-0.4,2.7,0,4c0.2,0.6,0.5,1.1,0.9,1.5c0.4,0.4,0.9,0.7,1.4,0.9c1.2,0.4,2.5,0.4,3.7,0c0.5-0.2,1-0.5,1.4-0.9
	c0.4-0.4,0.7-0.9,0.9-1.5C238.8,96.9,239,96.2,239,95.5L239,95.5z"/>
<path d="M245.3,100.2h5.5v1.4h-7.2V89.4h1.7V100.2z"/>
<path d="M258.1,100.3c0.5,0,1-0.1,1.4-0.3c0.4-0.2,0.7-0.4,1-0.7c0.3-0.3,0.5-0.7,0.7-1.1c0.2-0.5,0.2-0.9,0.2-1.4v-7.4h1.8v7.4
	c0,0.7-0.1,1.4-0.4,2c-0.2,0.6-0.6,1.1-1,1.6c-0.5,0.4-1,0.8-1.6,1c-0.7,0.3-1.4,0.4-2.1,0.4c-0.7,0-1.4-0.1-2.1-0.4
	c-0.6-0.2-1.1-0.6-1.6-1c-0.4-0.4-0.8-1-1-1.6c-0.2-0.6-0.4-1.3-0.4-2v-7.4h1.7v7.4c0,0.5,0.1,1,0.2,1.4c0.1,0.4,0.4,0.8,0.7,1.1
	c0.3,0.3,0.6,0.6,1,0.7C257.2,100.2,257.6,100.3,258.1,100.3z"/>
<path d="M275.3,89.4v1.4h-4.1v10.8h-1.7V90.8h-4.1v-1.4H275.3z"/>
<path d="M279.6,101.6h-1.7V89.4h1.7V101.6z"/>
<path d="M295.3,95.5c0,0.9-0.1,1.7-0.5,2.5c-0.3,0.7-0.7,1.4-1.3,2c-0.6,0.6-1.3,1-2,1.3c-1.6,0.6-3.5,0.6-5.1,0
	c-0.7-0.3-1.4-0.7-2-1.3c-0.6-0.6-1-1.3-1.3-2c-0.6-1.6-0.6-3.4,0-5c0.3-0.7,0.7-1.4,1.3-2c0.6-0.6,1.3-1,2-1.3
	c1.6-0.6,3.5-0.6,5.1,0c1.5,0.6,2.7,1.8,3.2,3.3C295.2,93.8,295.3,94.7,295.3,95.5z M293.6,95.5c0-0.7-0.1-1.4-0.3-2
	c-0.2-0.6-0.5-1.1-0.9-1.5c-0.4-0.4-0.9-0.7-1.4-0.9c-0.6-0.2-1.2-0.3-1.9-0.3c-0.6,0-1.3,0.1-1.9,0.3c-0.5,0.2-1,0.5-1.4,0.9
	c-0.4,0.4-0.7,0.9-0.9,1.5c-0.4,1.3-0.4,2.7,0,4c0.2,0.6,0.5,1.1,0.9,1.5c0.4,0.4,0.9,0.7,1.4,0.9c0.6,0.2,1.2,0.3,1.9,0.3
	c0.6,0,1.3-0.1,1.9-0.3c0.5-0.2,1-0.5,1.4-0.9c0.4-0.4,0.7-0.9,0.9-1.5C293.5,96.9,293.6,96.2,293.6,95.5z"/>
<path d="M299.4,89.5c0.1,0.1,0.2,0.1,0.2,0.2l7.3,9.2c0-0.2,0-0.3,0-0.4s0-0.3,0-0.4v-8.6h1.5v12.2h-0.9c-0.1,0-0.2,0-0.3-0.1
	c-0.1-0.1-0.2-0.1-0.3-0.2l-7.4-9.2v0.4v9h-1.5V89.4h0.9C299.2,89.4,299.3,89.4,299.4,89.5z"/>
</svg>
